<?xml version="1.0" encoding="UTF-8"?>
<svg xmlns="http://www.w3.org/2000/svg" xmlns:xlink="http://www.w3.org/1999/xlink" width="595.28pt" height="841.89pt" viewBox="0 0 595.28 841.89" version="1.1">
<g id="surface1">
<path style=" stroke:none;fill-rule:evenodd;fill:rgb(13.000488%,11.326599%,11.31134%);fill-opacity:1;" d="M 325.164063 324.074219 C 316.09375 330.375 307.347656 333.304688 297.640625 333.304688 C 287.9375 333.304688 279.191406 330.375 270.121094 324.074219 L 267.753906 322.433594 L 265.359375 324.023438 C 255.105469 330.8125 246.773438 332.054688 234.0625 332.054688 C 229.679688 332.054688 224.96875 331.226563 220.4375 329.664063 L 217.417969 328.621094 L 215.582031 331.234375 C 214.605469 332.621094 213.878906 333.503906 213.179688 334.359375 C 212.3125 335.410156 211.496094 336.402344 210.539063 337.945313 L 209 340.410156 L 210.75 342.734375 C 218.519531 353.058594 221.449219 363.679688 221.449219 373.675781 C 221.449219 392.320313 211.257813 408.796875 203.226563 417.125 L 200.335938 420.128906 L 203.285156 423.074219 C 204.867188 424.652344 207.6875 427.578125 210.019531 430.03125 C 210.011719 430.125 209.925781 431.3125 209.925781 431.3125 L 209.90625 431.546875 C 209.808594 433.359375 209.761719 435.140625 209.761719 436.898438 C 209.761719 455.832031 215.355469 471.574219 226.433594 483.75 C 239.253906 497.84375 259.304688 506.261719 283 507.570313 C 288.882813 512.929688 294.863281 517.378906 295.128906 517.578125 L 297.664063 519.453125 L 300.191406 517.570313 C 300.457031 517.371094 306.40625 512.925781 312.28125 507.570313 C 335.980469 506.261719 356.027344 497.84375 368.851563 483.75 C 379.925781 471.574219 385.523438 455.832031 385.523438 436.898438 C 385.523438 435.144531 385.472656 433.359375 385.375 431.546875 L 385.375 431.507813 L 385.351563 431.273438 C 385.351563 431.273438 385.269531 430.125 385.265625 430.03125 C 387.421875 427.761719 390.332031 424.734375 391.996094 423.074219 L 394.945313 420.128906 L 392.054688 417.125 C 384.027344 408.796875 373.832031 392.320313 373.832031 373.675781 C 373.832031 363.679688 376.761719 353.058594 384.53125 342.734375 L 386.277344 340.414063 L 384.746094 337.945313 C 383.785156 336.402344 382.96875 335.410156 382.105469 334.359375 C 381.402344 333.503906 380.675781 332.621094 379.703125 331.234375 L 377.863281 328.621094 L 374.847656 329.664063 C 370.3125 331.226563 365.601563 332.054688 361.21875 332.054688 C 348.507813 332.054688 340.175781 330.8125 329.921875 324.023438 L 327.527344 322.433594 Z M 325.164063 324.074219 "/>
<path style=" stroke:none;fill-rule:evenodd;fill:rgb(84.043884%,69.120789%,7.661438%);fill-opacity:1;" d="M 297.65625 514.167969 C 297.65625 514.167969 290.882813 509.144531 284.765625 503.429688 C 244.734375 501.769531 211.609375 479.320313 214.140625 431.773438 C 214.289063 430.519531 214.164063 430.605469 214.378906 428.464844 C 212.085938 426.035156 208.289063 422.070313 206.28125 420.070313 C 220.640625 405.171875 237.398438 371.089844 214.140625 340.183594 C 215.667969 337.726563 216.777344 336.910156 219.050781 333.671875 C 223.699219 335.277344 228.871094 336.296875 234.0625 336.296875 C 247.398438 336.296875 256.503906 334.972656 267.699219 327.5625 C 276.550781 333.703125 286.148438 337.550781 297.640625 337.550781 C 309.132813 337.550781 318.734375 333.703125 327.582031 327.5625 C 338.777344 334.972656 347.882813 336.296875 361.21875 336.296875 C 366.410156 336.296875 371.582031 335.277344 376.230469 333.671875 C 378.503906 336.910156 379.613281 337.726563 381.140625 340.183594 C 357.886719 371.089844 374.644531 405.171875 389 420.070313 C 386.992188 422.070313 383.195313 426.035156 380.898438 428.464844 C 381.117188 430.605469 380.992188 430.519531 381.140625 431.773438 C 383.671875 479.320313 350.546875 501.769531 310.519531 503.429688 C 304.398438 509.144531 297.65625 514.167969 297.65625 514.167969 "/>
<path style=" stroke:none;fill-rule:evenodd;fill:rgb(13.000488%,11.326599%,11.31134%);fill-opacity:1;" d="M 221.734375 428.9375 L 221.171875 428.9375 L 220.929688 430.980469 L 220.753906 432.300781 C 219.820313 450.617188 224.386719 465.414063 234.324219 476.3125 C 245.726563 488.816406 264.191406 495.941406 287.730469 496.914063 C 287.753906 496.914063 288.125 496.917969 288.125 496.917969 C 295.1875 496.953125 301.859375 496.992188 307.535156 496.914063 C 331.089844 495.941406 349.558594 488.816406 360.957031 476.3125 C 370.894531 465.414063 375.460938 450.617188 374.527344 432.332031 C 374.527344 432.300781 374.351563 430.976563 374.351563 430.976563 L 374.113281 428.960938 L 373.546875 428.9375 Z M 221.734375 428.9375 "/>
<path style=" stroke:none;fill-rule:evenodd;fill:rgb(15.274048%,31.297302%,64.053345%);fill-opacity:1;" d="M 222.300781 430.207031 C 222.246094 430.664063 222.183594 431.179688 222.183594 431.179688 C 222.183594 431.179688 222.023438 432.398438 222.023438 432.398438 C 221.945313 433.925781 221.90625 435.429688 221.90625 436.902344 C 221.90625 452.769531 226.390625 465.722656 235.265625 475.453125 C 237.386719 477.78125 239.761719 479.917969 242.375 481.859375 L 242.375 430.207031 Z M 222.300781 430.207031 "/>
<path style=" stroke:none;fill-rule:evenodd;fill:rgb(15.274048%,31.297302%,64.053345%);fill-opacity:1;" d="M 373.261719 432.433594 L 373.09375 431.171875 C 373.09375 431.171875 373.035156 430.660156 372.980469 430.210938 L 352.90625 430.210938 L 352.90625 481.859375 C 355.519531 479.917969 357.894531 477.78125 360.015625 475.457031 C 368.894531 465.71875 373.378906 452.761719 373.378906 436.917969 C 373.378906 435.449219 373.339844 433.953125 373.261719 432.433594 "/>
<path style=" stroke:none;fill-rule:evenodd;fill:rgb(63.031006%,9.97467%,28.450012%);fill-opacity:1;" d="M 264.480469 430.207031 L 242.375 430.207031 L 242.375 481.859375 C 248.492188 486.402344 255.917969 489.875 264.480469 492.214844 Z M 264.480469 430.207031 "/>
<path style=" stroke:none;fill-rule:evenodd;fill:rgb(63.031006%,9.97467%,28.450012%);fill-opacity:1;" d="M 330.800781 430.207031 L 330.800781 492.214844 C 339.363281 489.875 346.789063 486.402344 352.90625 481.859375 L 352.90625 430.207031 Z M 330.800781 430.207031 "/>
<path style=" stroke:none;fill-rule:evenodd;fill:rgb(15.274048%,31.297302%,64.053345%);fill-opacity:1;" d="M 276.449219 462.023438 C 276.449219 454.371094 280.507813 447.667969 286.585938 443.941406 L 286.585938 430.210938 L 264.480469 430.210938 L 264.480469 492.214844 C 271.183594 494.046875 278.578125 495.179688 286.585938 495.585938 L 286.585938 480.105469 C 280.507813 476.378906 276.449219 469.675781 276.449219 462.023438 "/>
<path style=" stroke:none;fill-rule:evenodd;fill:rgb(15.274048%,31.297302%,64.053345%);fill-opacity:1;" d="M 308.695313 430.207031 L 308.695313 443.941406 C 314.773438 447.664063 318.832031 454.371094 318.832031 462.023438 C 318.832031 469.671875 314.773438 476.378906 308.695313 480.105469 L 308.695313 495.585938 C 316.703125 495.179688 324.101563 494.042969 330.800781 492.214844 L 330.800781 430.207031 Z M 308.695313 430.207031 "/>
<path style=" stroke:none;fill-rule:evenodd;fill:rgb(63.031006%,9.97467%,28.450012%);fill-opacity:1;" d="M 308.695313 443.941406 L 308.695313 430.210938 L 286.585938 430.210938 L 286.585938 443.941406 C 289.804688 441.96875 293.589844 440.832031 297.640625 440.832031 C 301.691406 440.832031 305.476563 441.96875 308.695313 443.941406 "/>
<path style=" stroke:none;fill-rule:evenodd;fill:rgb(63.031006%,9.97467%,28.450012%);fill-opacity:1;" d="M 286.585938 480.105469 L 286.585938 495.585938 C 286.976563 495.605469 287.367188 495.628906 287.757813 495.644531 L 288.132813 495.644531 C 295.1875 495.683594 301.851563 495.71875 307.5 495.644531 C 307.898438 495.628906 308.296875 495.605469 308.695313 495.585938 L 308.695313 480.105469 C 305.476563 482.074219 301.691406 483.210938 297.640625 483.210938 C 293.589844 483.210938 289.804688 482.074219 286.585938 480.105469 "/>
<path style=" stroke:none;fill-rule:evenodd;fill:rgb(84.043884%,69.120789%,7.661438%);fill-opacity:1;" d="M 286.828125 465.867188 C 282.992188 462.375 282.980469 455.277344 284.011719 450.566406 C 284.296875 449.253906 284.65625 447.96875 285.027344 446.5 C 280.519531 450.167969 277.640625 455.757813 277.640625 462.023438 C 277.640625 464.675781 278.15625 467.203125 279.09375 469.519531 C 279.433594 469.5625 279.78125 469.589844 280.132813 469.589844 C 283.09375 469.589844 285.511719 468.222656 286.828125 465.867188 "/>
<path style=" stroke:none;fill-rule:evenodd;fill:rgb(84.043884%,69.120789%,7.661438%);fill-opacity:1;" d="M 307.414063 467.398438 C 306.757813 470.75 303.175781 473.261719 299.796875 475.277344 C 296.316406 477.351563 290.703125 478.421875 286.480469 478.621094 C 289.667969 480.769531 293.507813 482.023438 297.640625 482.023438 C 305.183594 482.023438 311.75 477.847656 315.15625 471.679688 C 314.558594 466.746094 309.867188 466.167969 307.414063 467.398438 "/>
<path style=" stroke:none;fill-rule:evenodd;fill:rgb(84.043884%,69.120789%,7.661438%);fill-opacity:1;" d="M 284.929688 477.460938 C 289.101563 477.492188 295.511719 476.445313 299.1875 474.253906 C 303.9375 471.417969 307.628906 468.394531 305.875 464.199219 C 304.992188 462.082031 302.042969 459.628906 298.222656 462.335938 C 297.980469 465.464844 294.117188 468.226563 291.339844 467.871094 C 289.9375 467.6875 288.757813 467.246094 287.777344 466.605469 C 286.21875 469.269531 283.425781 470.777344 280.132813 470.777344 C 279.96875 470.777344 279.808594 470.773438 279.648438 470.765625 C 280.914063 473.363281 282.722656 475.644531 284.929688 477.460938 "/>
<path style=" stroke:none;fill-rule:evenodd;fill:rgb(84.043884%,69.120789%,7.661438%);fill-opacity:1;" d="M 297.589844 449.558594 C 300.898438 448.1875 305.480469 449.96875 308.976563 451.921875 C 312.273438 453.761719 315.714844 457.203125 317.605469 460.8125 C 316.984375 450.386719 308.375 442.113281 297.8125 442.023438 C 294.65625 444.09375 295.089844 448 297.589844 449.558594 "/>
<path style=" stroke:none;fill-rule:evenodd;fill:rgb(84.043884%,69.120789%,7.661438%);fill-opacity:1;" d="M 297.03125 462.320313 C 292.933594 459.332031 293.1875 454.632813 294.949219 451.839844 C 295.378906 451.15625 295.882813 450.617188 296.441406 450.203125 C 294.0625 448.304688 293.585938 444.617188 295.890625 442.097656 C 292.445313 442.398438 289.246094 443.566406 286.523438 445.394531 C 285.652344 449.152344 284.539063 452.582031 284.59375 456.503906 C 284.667969 461.789063 286.855469 466.09375 291.492188 466.691406 C 293.65625 466.964844 296.78125 464.664063 297.03125 462.320313 "/>
<path style=" stroke:none;fill-rule:evenodd;fill:rgb(84.043884%,69.120789%,7.661438%);fill-opacity:1;" d="M 317.554688 463.863281 C 316.414063 459.722656 312.3125 455.148438 308.394531 452.960938 C 303.5625 450.261719 298.277344 448.792969 295.953125 452.476563 C 294.460938 454.839844 294.253906 458.746094 297.640625 461.289063 C 302.238281 458.113281 305.914063 461.203125 306.972656 463.742188 C 307.316406 464.554688 307.488281 465.328125 307.515625 466.066406 C 310.230469 465.109375 314.644531 465.726563 316.003906 469.960938 C 316.824219 468.0625 317.363281 466.011719 317.554688 463.863281 "/>
<path style=" stroke:none;fill-rule:evenodd;fill:rgb(13.000488%,11.326599%,11.31134%);fill-opacity:1;" d="M 279.410156 405.878906 L 265.429688 405.878906 L 265.429688 425.535156 L 269.6875 425.535156 L 269.6875 417.425781 L 275.488281 417.425781 L 275.488281 413.277344 L 269.6875 413.277344 L 269.6875 410.058594 L 279.613281 410.058594 L 279.613281 405.878906 Z M 279.410156 405.878906 "/>
<path style=" stroke:none;fill-rule:evenodd;fill:rgb(13.000488%,11.326599%,11.31134%);fill-opacity:1;" d="M 287.539063 415.707031 C 287.539063 421.863281 290.921875 425.839844 296.15625 425.839844 C 299.570313 425.839844 302.027344 424.335938 303.460938 421.378906 L 303.546875 421.210938 L 299.964844 419.085938 L 299.859375 419.261719 C 298.835938 420.972656 297.863281 421.605469 296.265625 421.605469 C 293.660156 421.605469 291.910156 419.238281 291.910156 415.707031 C 291.910156 412.070313 293.570313 409.808594 296.242188 409.808594 C 297.792969 409.808594 298.882813 410.457031 299.574219 411.789063 L 299.667969 411.960938 L 303.609375 410.144531 L 303.519531 409.957031 C 302.132813 407.089844 299.636719 405.578125 296.292969 405.578125 C 291.140625 405.578125 287.539063 409.742188 287.539063 415.707031 "/>
<path style=" stroke:none;fill-rule:evenodd;fill:rgb(13.000488%,11.326599%,11.31134%);fill-opacity:1;" d="M 322.9375 421.46875 L 318.03125 421.46875 L 318.03125 416.902344 L 322.9375 416.902344 C 324.675781 416.902344 325.484375 417.625 325.484375 419.171875 C 325.484375 420.675781 324.601563 421.46875 322.9375 421.46875 M 318.03125 409.839844 L 322.71875 409.839844 C 324.628906 409.839844 324.878906 410.714844 324.878906 411.472656 C 324.878906 412.558594 324.234375 413.085938 322.910156 413.085938 L 318.03125 413.085938 Z M 327.304688 414.890625 C 328.496094 414.046875 329.195313 412.722656 329.195313 411.171875 C 329.195313 407.859375 326.835938 405.878906 322.882813 405.878906 L 313.855469 405.878906 L 313.855469 425.535156 L 322.800781 425.535156 C 327.214844 425.535156 329.851563 423.136719 329.851563 419.117188 C 329.851563 417.234375 328.910156 415.726563 327.304688 414.890625 "/>
<path style=" stroke:none;fill-rule:evenodd;fill:rgb(13.000488%,11.326599%,11.31134%);fill-opacity:1;" d="M 327.363281 335.609375 C 317.839844 341.367188 308.117188 344.171875 297.640625 344.179688 C 287.164063 344.171875 277.441406 341.367188 267.917969 335.609375 L 267.601563 335.414063 L 267.277344 335.597656 C 256.429688 341.730469 246.882813 342.929688 234.058594 342.929688 C 230.980469 342.929688 227.800781 342.617188 224.613281 342.007813 L 223.238281 341.746094 L 223.945313 342.953125 C 237.117188 365.496094 232.441406 387.289063 226.199219 401.601563 L 225.808594 402.492188 L 369.472656 402.492188 L 369.082031 401.601563 C 362.84375 387.289063 358.164063 365.496094 371.335938 342.953125 L 372.042969 341.746094 L 370.667969 342.007813 C 367.480469 342.617188 364.300781 342.929688 361.21875 342.929688 C 348.398438 342.929688 338.851563 341.730469 328.003906 335.597656 L 327.679688 335.414063 Z M 327.363281 335.609375 "/>
<path style=" stroke:none;fill-rule:evenodd;fill:rgb(100%,100%,100%);fill-opacity:1;" d="M 253.578125 342.386719 C 247.5625 343.8125 241.324219 344.199219 234.0625 344.199219 C 231.3125 344.199219 228.488281 343.914063 225.652344 343.441406 C 229.019531 349.460938 231.160156 355.414063 232.371094 361.1875 L 253.578125 361.1875 Z M 253.578125 342.386719 "/>
<path style=" stroke:none;fill-rule:evenodd;fill:rgb(100%,100%,100%);fill-opacity:1;" d="M 297.003906 361.1875 L 297.003906 345.441406 C 289.398438 345.355469 282.175781 343.808594 275.140625 340.761719 L 275.140625 361.1875 Z M 297.003906 361.1875 "/>
<path style=" stroke:none;fill-rule:evenodd;fill:rgb(100%,100%,100%);fill-opacity:1;" d="M 232.976563 382.753906 C 231.972656 389.652344 229.976563 395.910156 227.730469 401.21875 L 253.578125 401.21875 L 253.578125 382.753906 Z M 232.976563 382.753906 "/>
<path style=" stroke:none;fill-rule:evenodd;fill:rgb(100%,100%,100%);fill-opacity:1;" d="M 275.140625 401.21875 L 297.003906 401.21875 L 297.003906 382.753906 L 275.140625 382.753906 Z M 275.140625 401.21875 "/>
<path style=" stroke:none;fill-rule:evenodd;fill:rgb(88.439941%,16.340637%,22.843933%);fill-opacity:1;" d="M 275.140625 361.1875 L 275.140625 340.761719 C 272.597656 339.664063 270.078125 338.371094 267.574219 336.875 C 262.789063 339.542969 258.25 341.277344 253.578125 342.386719 L 253.578125 361.1875 L 232.371094 361.1875 C 233.261719 365.410156 233.65625 369.535156 233.65625 373.511719 C 233.65625 376.695313 233.40625 379.78125 232.976563 382.753906 L 253.578125 382.753906 L 253.578125 401.21875 L 275.140625 401.21875 L 275.140625 382.753906 L 297.003906 382.753906 L 297.003906 361.1875 Z M 275.140625 361.1875 "/>
<path style=" stroke:none;fill-rule:evenodd;fill:rgb(97.8302%,87.419128%,5.741882%);fill-opacity:1;" d="M 327.707031 336.875 C 327.695313 336.878906 327.683594 336.886719 327.675781 336.890625 L 327.675781 401.21875 L 335.253906 401.21875 L 335.253906 340.402344 C 332.769531 339.460938 330.273438 338.304688 327.707031 336.875 "/>
<path style=" stroke:none;fill-rule:evenodd;fill:rgb(97.8302%,87.419128%,5.741882%);fill-opacity:1;" d="M 312.511719 343.453125 L 312.511719 401.21875 L 320.089844 401.21875 L 320.089844 340.785156 C 317.589844 341.863281 315.066406 342.75 312.511719 343.453125 "/>
<path style=" stroke:none;fill-rule:evenodd;fill:rgb(97.8302%,87.419128%,5.741882%);fill-opacity:1;" d="M 298.277344 345.441406 L 298.277344 401.21875 L 304.929688 401.21875 L 304.929688 344.972656 C 302.746094 345.253906 300.527344 345.414063 298.277344 345.441406 "/>
<path style=" stroke:none;fill-rule:evenodd;fill:rgb(97.8302%,87.419128%,5.741882%);fill-opacity:1;" d="M 342.835938 342.632813 L 342.835938 401.21875 L 350.414063 401.21875 L 350.414063 343.773438 C 347.808594 343.53125 345.300781 343.164063 342.835938 342.632813 "/>
<path style=" stroke:none;fill-rule:evenodd;fill:rgb(97.8302%,87.419128%,5.741882%);fill-opacity:1;" d="M 361.625 373.511719 C 361.625 364.097656 363.800781 353.863281 369.628906 343.441406 C 366.792969 343.917969 363.96875 344.199219 361.21875 344.199219 C 360.121094 344.199219 359.050781 344.1875 357.996094 344.167969 L 357.996094 401.21875 L 367.550781 401.21875 C 364.339844 393.625 361.625 384.097656 361.625 373.511719 "/>
<path style=" stroke:none;fill-rule:evenodd;fill:rgb(88.439941%,16.340637%,22.843933%);fill-opacity:1;" d="M 350.414063 343.773438 L 350.414063 401.21875 L 357.996094 401.21875 L 357.996094 344.167969 C 355.355469 344.117188 352.84375 343.996094 350.414063 343.773438 "/>
<path style=" stroke:none;fill-rule:evenodd;fill:rgb(88.439941%,16.340637%,22.843933%);fill-opacity:1;" d="M 304.933594 344.972656 L 304.933594 401.21875 L 312.511719 401.21875 L 312.511719 343.453125 C 310.019531 344.136719 307.496094 344.644531 304.933594 344.972656 "/>
<path style=" stroke:none;fill-rule:evenodd;fill:rgb(88.439941%,16.340637%,22.843933%);fill-opacity:1;" d="M 320.089844 340.785156 L 320.089844 401.21875 L 327.671875 401.21875 L 327.671875 336.890625 C 325.164063 338.390625 322.640625 339.683594 320.089844 340.785156 "/>
<path style=" stroke:none;fill-rule:evenodd;fill:rgb(88.439941%,16.340637%,22.843933%);fill-opacity:1;" d="M 335.253906 340.402344 L 335.253906 401.21875 L 342.835938 401.21875 L 342.835938 342.632813 C 340.28125 342.085938 337.773438 341.355469 335.253906 340.402344 "/>
</g>
</svg>
